<?xml version="1.0" standalone="no"?>
<!DOCTYPE svg PUBLIC "-//W3C//DTD SVG 20010904//EN"
 "http://www.w3.org/TR/2001/REC-SVG-20010904/DTD/svg10.dtd">
<svg version="1.0" xmlns="http://www.w3.org/2000/svg"
 width="225.000000pt" height="225.000000pt" viewBox="0 0 225.000000 225.000000"
 preserveAspectRatio="xMidYMid meet">

<g transform="translate(0.000000,225.000000) scale(0.100000,-0.100000)"
fill="#000000" stroke="none">
<path d="M1040 2121 c-108 -35 -192 -131 -206 -235 l-7 -45 -31 24 c-74 57
-184 72 -282 38 -66 -22 -145 -101 -167 -167 -35 -101 -14 -230 45 -293 l21
-23 -26 0 c-86 0 -200 -82 -243 -174 l-24 -51 0 -508 c0 -330 4 -515 10 -528
28 -50 -1 -49 1005 -49 l937 0 29 29 29 29 0 504 c0 585 3 567 -89 659 -56 55
-123 89 -178 89 l-24 0 27 35 c37 49 53 100 54 171 0 86 -24 149 -79 204 -62
62 -111 83 -199 88 -82 5 -142 -12 -192 -55 l-30 -25 0 24 c0 78 -72 185 -157
235 -37 21 -61 27 -122 29 -42 2 -87 0 -101 -5z m137 -136 c21 -9 46 -23 56
-33 52 -46 64 -136 28 -198 -19 -32 -21 -51 -21 -192 l0 -157 115 115 c74 74
115 122 115 136 0 26 36 81 71 107 102 75 261 -24 245 -152 -10 -71 -77 -141
-136 -141 -13 0 -61 -42 -133 -115 l-112 -115 158 0 c125 0 163 3 181 15 64
43 141 37 197 -13 29 -26 62 -99 52 -114 -6 -11 -1731 -10 -1737 0 -12 19 17
82 49 111 61 53 135 60 201 16 18 -12 56 -15 182 -15 l159 0 -117 115 c-72 71
-124 115 -137 115 -25 0 -80 37 -106 71 -75 102 24 261 152 245 69 -9 141 -77
141 -132 0 -10 52 -70 115 -134 l115 -117 0 159 c0 126 -3 164 -15 182 -43 65
-37 140 15 200 46 51 106 66 167 41z m-477 -956 c80 -36 134 -102 149 -183 l8
-46 -71 0 -71 0 -17 40 c-40 97 -178 86 -207 -16 -21 -76 26 -132 123 -144
145 -18 237 -117 238 -256 1 -77 -25 -137 -82 -187 -56 -52 -96 -67 -173 -67
-112 0 -207 66 -242 169 -26 78 -25 81 55 81 69 0 70 0 83 -32 30 -71 104 -97
165 -59 104 66 46 211 -85 211 -86 0 -185 78 -220 173 -43 119 26 268 149 322
49 21 145 18 198 -6z m314 4 c2 -10 26 -119 51 -243 57 -279 56 -274 66 -236
5 16 30 135 56 263 l48 233 73 0 c70 0 72 -1 67 -22 -10 -43 -175 -846 -175
-852 0 -3 -33 -6 -74 -6 -62 0 -76 3 -80 18 -7 24 -176 842 -176 853 0 5 31 9
69 9 58 0 71 -3 75 -17z m741 -7 c78 -36 132 -107 148 -193 l7 -33 -73 0 -72
0 -17 40 c-31 75 -130 91 -182 29 l-26 -31 0 -229 0 -229 28 -30 c36 -41 93
-50 140 -21 41 27 52 55 52 142 l0 69 -55 0 -55 0 0 70 0 70 130 0 130 0 0
-138 c0 -169 -14 -225 -71 -287 -56 -61 -110 -85 -190 -85 -119 0 -221 77
-248 187 -14 53 -14 456 -1 504 13 46 56 111 94 140 68 54 178 64 261 25z"/>
</g>
</svg>
